<svg xmlns="http://www.w3.org/2000/svg" width="32" height="32" viewBox="0 0 24 24" fill="none">
  <!-- Background circle for better visibility -->
  <circle cx="12" cy="12" r="11" fill="#10B981" stroke="#065F46" stroke-width="1"/>
  
  <!-- Main recycle paths with white fill and black stroke -->
  <path d="M7 19H4.815a1.83 1.83 0 0 1-1.57-.881 1.785 1.785 0 0 1-.004-1.784L7.196 9.5" 
        fill="none" stroke="white" stroke-width="1.5" stroke-linecap="round" stroke-linejoin="round"/>
  
  <path d="M11 19h8.203a1.83 1.83 0 0 0 1.556-.89 1.784 1.784 0 0 0 0-1.775l-1.226-2.12" 
        fill="none" stroke="white" stroke-width="1.5" stroke-linecap="round" stroke-linejoin="round"/>
  
  <!-- Arrow 1 - with white fill and black outline -->
  <path d="m14 16-3 3 3 3" 
        fill="white" stroke="#1F2937" stroke-width="0.8" stroke-linecap="round" stroke-linejoin="round"/>
  
  <path d="M8.293 13.596 7.196 9.5 3.1 10.598" 
        fill="none" stroke="white" stroke-width="1.5" stroke-linecap="round" stroke-linejoin="round"/>
  
  <path d="m9.344 5.811 1.093-1.892A1.83 1.83 0 0 1 11.985 3a1.784 1.784 0 0 1 1.546.888l3.943 6.843" 
        fill="none" stroke="white" stroke-width="1.5" stroke-linecap="round" stroke-linejoin="round"/>
  
  <!-- Arrow 2 - with white fill and black outline -->
  <path d="m13.378 9.633 4.096 1.098 1.097-4.096" 
        fill="white" stroke="#1F2937" stroke-width="0.8" stroke-linecap="round" stroke-linejoin="round"/>
</svg>
